<?xml version="1.0" standalone="no"?>
<!DOCTYPE svg PUBLIC "-//W3C//DTD SVG 20010904//EN"
 "http://www.w3.org/TR/2001/REC-SVG-20010904/DTD/svg10.dtd">
<svg version="1.0" xmlns="http://www.w3.org/2000/svg"
 width="240.000000pt" height="240.000000pt" viewBox="0 0 240.000000 240.000000"
 preserveAspectRatio="xMidYMid meet">

<g transform="translate(0.000000,240.000000) scale(0.100000,-0.100000)"
fill="#000000" stroke="none">
<path d="M1099 2388 c-278 -20 -532 -139 -740 -347 -184 -184 -298 -405 -339
-654 -13 -80 -13 -294 0 -374 41 -249 155 -470 339 -654 151 -150 312 -248
505 -303 123 -36 202 -47 336 -47 327 0 607 116 841 350 184 184 298 405 339
654 13 80 13 294 0 374 -41 249 -155 470 -339 654 -257 257 -574 374 -942 347z
m780 -813 c12 -12 10 -22 -17 -73 -60 -112 -162 -399 -162 -455 0 -54 65 -18
134 74 55 73 59 93 16 84 -25 -5 -30 -3 -30 12 0 11 17 27 47 43 43 23 50 32
75 95 15 39 27 82 27 97 1 31 26 43 63 29 44 -17 52 -36 34 -82 -9 -22 -12
-37 -6 -34 6 4 22 4 36 1 21 -6 25 -12 22 -38 -3 -29 -8 -33 -60 -50 l-56 -19
-27 -72 c-31 -84 -44 -167 -26 -167 6 0 43 30 82 66 39 36 73 63 76 60 16 -15
-95 -139 -149 -167 -74 -38 -118 -18 -118 55 l0 43 -43 -42 c-104 -99 -197
-98 -197 4 l0 34 -47 -45 c-59 -54 -105 -75 -141 -62 -41 14 -46 51 -22 142
l21 78 50 18 c28 10 52 16 55 14 2 -3 -5 -30 -16 -62 -23 -68 -29 -127 -14
-133 17 -6 129 101 142 134 6 16 41 113 79 218 37 104 76 198 86 208 21 21 61
17 86 -8z m-1106 -88 c43 -19 61 -42 61 -83 0 -38 -33 -80 -69 -86 -40 -8 -47
4 -30 46 15 35 15 40 0 62 -20 31 -36 30 -65 -1 -35 -37 -31 -105 10 -192 27
-56 34 -83 37 -153 5 -79 3 -89 -24 -140 -55 -104 -160 -153 -274 -129 -136
29 -184 180 -84 268 40 35 95 49 131 32 30 -13 31 -31 3 -31 -12 0 -39 -17
-60 -39 -33 -33 -39 -45 -39 -81 0 -83 86 -127 161 -83 36 21 69 87 69 136 0
21 -19 93 -41 161 -46 138 -47 185 -6 248 43 65 146 95 220 65z m825 -19 c7
-6 12 -25 10 -42 -2 -24 -13 -36 -58 -62 -63 -38 -86 -43 -75 -16 4 9 15 42
23 72 9 30 21 58 27 63 12 9 54 0 73 -15z m50 -107 c8 -4 12 -20 10 -36 -3
-26 -11 -31 -138 -76 -153 -54 -160 -56 -160 -31 0 12 39 38 123 83 125 69
142 75 165 60z m-637 -52 c47 -47 2 -142 -97 -205 -56 -36 -65 -53 -39 -74 38
-31 132 40 172 130 44 99 112 152 215 165 50 6 57 5 67 -13 17 -32 13 -116 -9
-175 -36 -97 -126 -176 -201 -177 -38 0 -77 35 -85 75 -3 19 -7 35 -8 35 -1 0
-23 -20 -49 -45 -80 -76 -165 -82 -199 -14 -33 64 -17 149 44 234 56 78 145
108 189 64z m133 -435 c23 -22 20 -41 -9 -60 -35 -23 -55 -12 -55 29 0 19 3
37 7 40 11 12 41 7 57 -9z m56 -23 c0 -22 -4 -43 -10 -46 -6 -4 -10 12 -10 39
0 25 5 46 10 46 6 0 10 -18 10 -39z m90 30 c0 -5 -10 -11 -22 -13 -25 -3 -33
-38 -10 -46 8 -2 10 2 6 13 -5 13 -2 16 12 13 10 -2 20 -11 22 -20 4 -22 -42
-35 -63 -18 -18 15 -20 51 -3 68 14 14 58 16 58 3z m50 -30 c0 -22 -4 -43 -10
-46 -6 -4 -10 12 -10 39 0 25 5 46 10 46 6 0 10 -18 10 -39z m90 29 c0 -5 -7
-10 -15 -10 -11 0 -15 -11 -15 -36 0 -21 -4 -33 -10 -29 -5 3 -10 19 -10 36 0
16 -4 29 -10 29 -5 0 -10 5 -10 10 0 6 16 10 35 10 19 0 35 -4 35 -10z m120
-25 c0 -24 5 -35 15 -35 8 0 15 -4 15 -10 0 -5 -11 -10 -25 -10 -23 0 -25 4
-25 45 0 25 5 45 10 45 6 0 10 -16 10 -35z m130 25 c0 -5 -7 -10 -15 -10 -11
0 -10 -5 6 -21 19 -19 20 -23 6 -36 -10 -10 -22 -13 -34 -8 -17 8 -17 8 0 12
21 6 22 12 0 28 -21 16 -10 45 17 45 11 0 20 -4 20 -10z m90 0 c0 -5 -4 -10
-10 -10 -5 0 -10 -13 -10 -29 0 -17 -4 -33 -10 -36 -6 -4 -10 8 -10 29 0 25
-4 36 -15 36 -8 0 -15 5 -15 10 0 6 16 10 35 10 19 0 35 -4 35 -10z m42 -22
c4 -46 31 -44 39 2 l6 35 2 -42 c1 -34 -3 -43 -19 -48 -30 -9 -50 12 -50 51 0
43 18 44 22 2z m136 20 c18 -18 14 -56 -7 -68 -40 -21 -51 -13 -51 35 0 40 2
45 23 45 13 0 28 -5 35 -12z m52 -34 c0 -27 -4 -43 -10 -39 -5 3 -10 24 -10
46 0 21 5 39 10 39 6 0 10 -21 10 -46z m102 21 c10 -22 9 -29 -9 -46 -38 -38
-89 3 -63 51 16 29 58 26 72 -5z m-609 -20 c22 -45 21 -48 -3 -35 -14 8 -26 8
-40 0 -11 -6 -20 -8 -20 -6 0 11 34 76 40 76 3 0 14 -16 23 -35z"/>
<path d="M926 1267 c-29 -38 -71 -146 -60 -156 12 -12 75 73 89 123 19 64 6
79 -29 33z"/>
<path d="M1195 1266 c-31 -40 -65 -133 -65 -176 0 -114 113 -78 155 50 l17 50
-32 36 c-20 23 -30 44 -27 55 8 31 -20 22 -48 -15z"/>
<path d="M1103 854 c-9 -23 11 -38 26 -20 13 16 7 36 -10 36 -5 0 -12 -7 -16
-16z"/>
<path d="M1910 845 c0 -17 5 -25 13 -22 6 2 12 12 12 22 0 10 -6 20 -12 23 -8
2 -13 -6 -13 -23z"/>
<path d="M2046 861 c-9 -14 4 -41 19 -41 15 0 24 19 18 38 -5 14 -29 16 -37 3z"/>
<path d="M1460 840 c0 -5 5 -10 10 -10 6 0 10 5 10 10 0 6 -4 10 -10 10 -5 0
-10 -4 -10 -10z"/>
</g>
</svg>
